# xmcd CD database file
#
# Track frame offsets:
#	150
#	14920
#	29640
#	48447
#	62927
#	84840
#	106537
#	122445
#	143372
#	161547
#	187780
#
# Disc length: 2828 seconds
#
# Revision: 3
# Processed by: cddbd v1.5.2PL0 Copyright (c) Steve Scherf et al.
# Submitted via: CDex 1.50
#
DISCID=820b0a0b
DTITLE=Keith Richards - Talk is Cheap
DYEAR=1988
DGENRE=Blues
TTITLE0=Big Enough
TTITLE1=Take It So Hard
TTITLE2=Struggle
TTITLE3=I Could Have Stood You Up
TTITLE4=Make No Mistake
TTITLE5=You Don't Move Me
TTITLE6=How I Wish
TTITLE7=Rockawhile
TTITLE8=Whip It Up
TTITLE9=Locked Away
TTITLE10=It Means A Lot
EXTD=YEAR: 1988
EXTT0=
EXTT1=
EXTT2=
EXTT3=
EXTT4=
EXTT5=
EXTT6=
EXTT7=
EXTT8=
EXTT9=
EXTT10=
PLAYORDER=
